/* XPM */
static char *_094bfadbf6246359d51fb114254414ffLRy8ceJv9hrEP3X[] = {
/* columns rows colors chars-per-pixel */
"100 55 191 2 ",
"   c None",
".  c #141416",
"X  c #151619",
"o  c #1C1C1D",
"O  c #16181C",
"+  c #141F25",
"@  c #1B1D21",
"#  c #152026",
"$  c #192226",
"%  c #152229",
"&  c #1B252B",
"*  c #1D282E",
"=  c #1D2A32",
"-  c #1D2A3B",
";  c #1B2730",
":  c #232425",
">  c #23262A",
",  c #24292D",
"<  c #2A2B2D",
"1  c #282727",
"2  c #232D34",
"3  c #2B2E31",
"4  c #222D3B",
"5  c #292F3B",
"6  c #2C3235",
"7  c #25323C",
"8  c #2B343C",
"9  c #273036",
"0  c #323335",
"q  c #393737",
"w  c #32363B",
"e  c #353A3D",
"r  c #3B3B3C",
"t  c #3A3837",
"y  c #413F3E",
"u  c #1E2D44",
"i  c #1E2E49",
"p  c #1F3046",
"a  c #242F43",
"s  c #242D4B",
"d  c #243343",
"f  c #2A3542",
"g  c #2C3A44",
"h  c #23334C",
"j  c #2D3C4B",
"k  c #323641",
"l  c #353B42",
"z  c #3A3D43",
"x  c #303F4A",
"c  c #233554",
"v  c #263852",
"b  c #233559",
"n  c #24395D",
"m  c #293C57",
"M  c #243A63",
"N  c #253E69",
"B  c #253E71",
"V  c #3D4143",
"C  c #33424D",
"Z  c #3E4249",
"A  c #364651",
"S  c #384651",
"D  c #3A4A56",
"F  c #3D4E5A",
"G  c #3F505B",
"H  c #2A4167",
"J  c #254272",
"K  c #2A4472",
"L  c #254478",
"P  c #424345",
"I  c #42464A",
"U  c #454A4C",
"Y  c #4A4B4D",
"T  c #4B4E52",
"R  c #474E5D",
"E  c #4C5054",
"W  c #42535D",
"Q  c #4C515B",
"!  c #525252",
"~  c #57595A",
"^  c #605E5D",
"/  c #485A66",
"(  c #4B5763",
")  c #5C5F61",
"_  c #4E616D",
"`  c #5F6162",
"'  c #566A76",
"]  c #616569",
"[  c #6B6C6B",
"{  c #666666",
"}  c #6E7171",
"|  c #737679",
" . c #767A7C",
".. c #7A7C7D",
"X. c #707375",
"o. c #9B4B4C",
"O. c #934F4F",
"+. c #985859",
"@. c #A15556",
"#. c #9D744D",
"$. c #97675B",
"%. c #986869",
"&. c #9F6F70",
"*. c #937677",
"=. c #A26364",
"-. c #A06B6C",
";. c #A27778",
":. c #9B855C",
">. c #8B806C",
",. c #958567",
"<. c #95876D",
"1. c #A28E68",
"2. c #A4967A",
"3. c #FDAB7E",
"4. c #274C88",
"5. c #2A5B99",
"6. c #295593",
"7. c #2D63A6",
"8. c #2C75BB",
"9. c #2C6CB4",
"0. c #797D81",
"q. c #2D7BC3",
"w. c #7D8183",
"e. c #308ACF",
"r. c #2E83D2",
"t. c #3194DE",
"y. c #2F95E0",
"u. c #3297E3",
"i. c #32A3ED",
"p. c #888986",
"a. c #808788",
"s. c #868A8C",
"d. c #87898A",
"f. c #888E90",
"g. c #8E9294",
"h. c #8F9698",
"j. c #939799",
"k. c #969A9C",
"l. c #9B9C9B",
"z. c #909190",
"x. c #96958F",
"c. c #AC9F9A",
"v. c #A79B81",
"b. c #9FA09F",
"n. c #AAA28D",
"m. c #A8A59A",
"M. c #999FA0",
"N. c #9DA2A3",
"B. c #A4A6A5",
"V. c #A3A7A9",
"C. c #A6AAAB",
"Z. c #AAADAD",
"A. c #ACA7A5",
"S. c #B1ADAF",
"D. c #B9B1AC",
"F. c #AAAFB1",
"G. c #ADB2B3",
"H. c #B3B4B4",
"J. c #B1B7B9",
"K. c #B5BBBC",
"L. c #BABDBD",
"P. c #B8B8B6",
"I. c #DAAD95",
"U. c #DBB19D",
"Y. c #D8A48B",
"T. c #FCAF84",
"R. c #E9B296",
"E. c #F7B388",
"W. c #CCB5A9",
"Q. c #DEB8A6",
"!. c #EAB9A0",
"~. c #C9C0BB",
"^. c #B9BFC0",
"/. c #BDC2C3",
"(. c #C1C6C7",
"). c #C1C7C8",
"_. c #C5CBCC",
"`. c #C9CECE",
"'. c #C9CFD0",
"]. c #CCD3D3",
"[. c #CFD6D8",
"{. c #D0D7D7",
"}. c #D1D7D8",
"|. c #D6DDDF",
" X c #D4DBDC",
".X c #D8DFDF",
"XX c #D8CAC2",
"oX c #D7DFE0",
"OX c #D8DFE0",
"+X c #D7E0E0",
"@X c #DBE3E3",
/* pixels */
"                                                                                                                                                                                                        ",
"                                                                                                                                                                                                        ",
"                                                                                                                                                                                                        ",
"                                                                                                                                        z r r P P P                                                     ",
"                                                                                                                                  q w 0 0 w w q r r P P Y                                               ",
"                                                                                                                                3 3 0 0 3 < 0 0 e P P P y <                                             ",
"                                                                                                                              3 > < 3 > 1 1 3 0 e V P V 0 < 1                                           ",
"                                                                  g.                                                        , & > 3 3 > > > > 3 q V U U r 3 1                                           ",
"                                                      T ~ [ ..d.g.j.k.k.w.E r e e e e e e e V V V Z V V P P U V U Y E Q ( R S k z w 3 > : > > > < 8 Y U P 0 < :                                         ",
"                                                a.j.C.^.)._.'.'.].`./.h.U x e 8 8 8 8 8 8 7 8 9 8 0 8 8 6 8 8 0 8 8 8 8 f 8 k l z Z U U z w < > > < 6 Y V r < :                                         ",
"                                            C.K./.).'.'.[.}. X|.|. XJ.E e 6 2 * * & * & & % & * = 2 2 7 7 g g g g 8 8 7 7 4 4 4 7 4 4 f k z I k 3 < < r V e 3 > 1                                       ",
"                                          G.J./.).'.].|.|.oX|..XoX].h.V 6 9 2 * & & # # # # # % % & = = 7 8 g C S F F C f 7 2 - - - - - a f k z z z 6 0 r < < < :                                       ",
"                                        f.F.K./._.]. X|. X X X X|.]. .V 6 9 = , & $ & # # # # % & ; = 7 g C D / _ ' ' _ F j 7 d d j h h s s a k l ~ 0.0 w : 1 < :                                       ",
"                                        p.2.K./.'.[. X{.`._.].{. X[.' V w 9 , , & & $ % # # # % # ; = = 7 C A W / _ _ / F j d 7 p h H J 6.B s w w P H.Y 0 @ : < :                                       ",
"                                        *.1.K._._.].[.XXR.W./.[. X].~ V w 2 < , & $ & $ # # % % % & ; = 7 8 C C F W W F A j d 7 d c J r.u.6.s s k z j.X.3 o : < :                                       ",
"                                        >.2.^.).'.].`.Q.3.E.P.`.[._.E V w 2 2 * & $ $ $ % # # # % % * ; 9 7 e C S D F D C g 7 p i c 4.u.6.N s s k l 0.f.< O : < $                                       ",
"                                        ,.n.^._.'.]._.D.Y.I.L.]. X(.U V 6 6 2 * & % % % # # # # % % % ; 2 7 g C C C A C C g 7 7 p c 5.5.N c s a k z ] M.< @ 0 < 1                                       ",
"                                        $.c./._.].].[._.L./.]. X X^.U e 6 6 2 * , * $ % # # # # % % % ; = 2 7 g g g C x x g 7 7 p c M H M c s a k k T V.3 , w <                                         ",
"                                        o.A./._.].].}.{.].]. X X XJ.Y V 6 e e 9 9 9 9 2 2 * + # % % % = = 2 7 7 g g g g g g 7 p d i M 8.4.n i a f k I Z.P q r r                                         ",
"                                        o.S./.].[.}.|.|.|.|.|.|.{.F.D e 6 e 8 8 7 6 7 6 6 $ + # % % % % = = 2 7 7 7 g g g 7 7 7 p p M q.r.5.b s s k Z V.Y 0 0                                           ",
"                                        O.H.(.'.[.|.oXoX+X+X+X|.].C.U e 0 6 2 2 9 = 2 = 9 + + # % % % % = = = 7 7 g 7 g 7 7 d p d p c L q.q.b a k k Z N.! 0                                             ",
"                                        =.H.).'.}.oXOXOX@X+X+X+X XM.U x 0 2 , * * * * 9 * o + + # # % % ; = = 7 7 7 7 g 7 g 7 7 - p p b b b s a 5 k z g.`                                               ",
"                                        %.F.^./.'.|.@X@X@X@X+X+X XM.U e 6 6 2 $ $ * * 7 $ + + + + # % % % = = = 7 7 g 7 7 g 7 7 4 a a v s s a 4 5 k l w.                                                ",
"                                      O.-.F.^.'.[.|.@X@X@X@X@X+X Xh.U e 6 < 6 * * * 8 C + + + + # # % % ; = = 7 7 9 7 7 g 7 7 p d 4 4 d - 4 4 5 w k l  .                                                ",
"                                      +.;.L.].|.+X@X@X@X@X@X@X@X Xw.I e 6 9 6 * 2 9 6 g + + + + # # % % % = = = 2 7 7 7 g 7 7 7 7 7 d f C j g w 8 8 l |                                                 ",
"                                      +.;.].+X@X@X@X@X@X@X@X@X+X+Xw.I e 6 2 , , * 2 9 2 o + + + # # # # % % % = = = 7 7 9 g 7 7 7 7 7 d D j g w w w z |                                                 ",
"                                      +.;.^.].|.@X@X@X@X@X@X+X+X+Xa.U e 6 < , 9 , , 9 2 + + + + # # % # % % % = = = 7 7 7 g g 7 7 d d g d - 7 l w w l |                                                 ",
"                                      %.&.Z.J.).@X@X@X@X@X@X+X.X+Xa.U e 6 , 6 , , & * 9 + + + + + # % % % % % = * = = 7 g C C g f d 7 x g - 4 8 f w e  .                                                ",
"                                      %.&.V.F.K.`. X|..X+X@X.X.X@Xw.U e 6 , 6 * : $ * 8 + + + + # # + + % % % = = = 7 7 C D C C j d d d a 4 w l 8 w l  .                                                ",
"                                      %.-.G./.).]..X.X.X.X.X.X.X+Xw.V e 6 6 6 * & & $ 2 # + + + + + + + % * = % = = 7 d C D A g d d d d a - 4 5 8 k z 0.                                                ",
"                                      %.=.H./.'.{. X.X|..X.X.X X+Xh.U e 6 6 6 * * & % * % # + + + % + % % % * = = 7 7 g C D C d d d h j h h a a f k z d.                                                ",
"                                      *.@.H./.].].{. X X.X X|.}.].M.U e 6 6 6 * * * * % * + + + + + + % % % * = = = 7 g C D C g d d v M K K s a f k z k.                                                ",
"                                        @.G./.'.].{. X{.{.{. X X XM.V g 6 6 9 2 , & & * * $ + + + # # # % = = = = 7 7 g A D C g d i M 5.t.q.c f f l P V.!                                               ",
"                                        o.Z./.'.].].].].`.].{. X XM.U e 6 6 , * , & + + $ $ + + + + # # % % % = = 2 7 g A D C d d h K u.9.4.c h f l I C.P 3                                             ",
"                                        #.A././._.].`.L.D.L._.].{.C.U e 6 , * * $ $ + # + + + + + % # % % ; ; = 2 7 g C D D j d h v H 6.H b h f j l Q Z.P 3 <                                           ",
"                                        :.m././._.`._.U.T.R.^.].{.F.V e 6 6 , * & $ $ # + + + + + % # % % % % = = 7 7 C D D C p h b K K M c h f k l ) B.U 0 1                                           ",
"                                        <.n.^._._.`.(.R.3.I.~.].].J.U e 6 9 * * $ & $ # # + + # % + # % % % ; = = = g C F D v d h n 8.7.N b h f j z 0.g.Y w < 1                                         ",
"                                        <.2.K./.`.]._.~.W.P._.].{.K.U e 6 9 * * & $ $ # # + + + + % % % % ; ; = 7 7 g C F D j d h b 7.u.6.M v f k z M.0.P z 3 :                                         ",
"                                        x.m.J./._.`.{.].`.`.{.{.{.(.U e 6 < * : & $ $ $ # + + + # # # % % % = = = 7 g C G A g d h v L e.t.B s k k z J.) P z 3 1                                         ",
"                                        N.C.G.L.~._.].{.{.{.{.{.]._.E e 6 , * * $ $ $ + + + # + # # # % ; ; = = 7 7 j A G C g d d h n N B b s k l Q J.P z 0 3 1 1                                       ",
"                                        Z.Z.Z.H.J.L./.)._.`.].].`._.{ e 9 2 * & : $ $ % # # # # # % % % * * * - 2 7 g A A C 7 7 a a s i u u s l z |  .r r 0 < 1 :                                       ",
"                                          B.Z.G.S.H.H.P.L.L.L.^./.L.f.e 6 6 , * & $ * $ $ $ $ # $ % % * & * * 2 7 7 g 8 9 9 7 = 4 4 - - 5 f z Z T { 0 w z e 0 < :                                       ",
"                                                b.b.S.H.H.H.P.H.J.K.F.} r 6 9 6 , < , , , , > , > > > > & > > , * & , * , * = 2 3 5 q z Z I I k 3 < < e V e 0 1 1                                       ",
"                                                    ! ~ [ ..p.x.n.N.m.m.p.[ ^ ~ Y P y t t t t t t t t q q q t t e e t t y P P V U Y I P r 0 > > > > < V V q 0 q                                         ",
"                                                          q t P U U ~ ~ ~                 } } [ {       I Y Y Y Y ! T T T e 6 3 z z 0 : : : : 1 : > r I r 0 3 r                                         ",
"                                                                                                                            O O 3 r w 3 : $ : : < 0 V r 0 < 1 1                                         ",
"                                                                                                                            X X O 6 q 3 < > 1 , < 0 6 , 1 : 1                                           ",
"                                                                                                                              . X . 1 3 < 1 1 1 < 1 : : : :                                             ",
"                                                                                                                                . . . 1 < 0 < < 1 1 o o :                                               ",
"                                                                                                                                  . O O o : : : o o o                                                   ",
"                                                                                                                                      : o o o o 1                                                       ",
"                                                                                                                                                                                                        ",
"                                                                                                                                                                                                        ",
"                                                                                                                                                                                                        ",
"                                                                                                                                                                                                        "
};
