/* XPM */
static char *result[] = {
/* columns rows colors chars-per-pixel */
"100 100 59 1 ",
"  c #5C5C5B",
". c #62615F",
"X c #656463",
"o c #696766",
"O c #6E6D6C",
"+ c #706F6E",
"@ c #6F706E",
"# c #72706F",
"$ c #757474",
"% c #787775",
"& c #777877",
"* c #797977",
"= c #757778",
"- c #777878",
"; c #7C7C7B",
": c #807F7D",
"> c #7F807E",
", c #81817F",
"< c #7E7F80",
"1 c #7F8181",
"2 c #848483",
"3 c #888786",
"4 c #878886",
"5 c #898987",
"6 c #878788",
"7 c #888788",
"8 c #878989",
"9 c #8C8C8B",
"0 c #908F8E",
"q c #8F908E",
"w c #91918F",
"e c #8F8F90",
"r c #918F90",
"t c #8F9090",
"y c #949493",
"u c #989796",
"i c #979897",
"p c #999997",
"a c #979798",
"s c #989798",
"d c #979898",
"f c #9C9C9B",
"g c #A09F9E",
"h c #9FA09E",
"j c #A1A19F",
"k c #9F9FA0",
"l c #A09FA0",
"z c #9FA1A0",
"x c #A3A3A2",
"c c #A8A7A6",
"v c #A7A8A6",
"b c #A8A8A7",
"n c #A6A7A8",
"m c #A7A8A8",
"M c #AAABAA",
"N c #AFB0AF",
"B c #B0B1AF",
"V c #AFB1B0",
"C c #B0B2B1",
/* pixels */
"u;**=1;;16<6:292659922rs9320996797669ayayrasw900yo:,22277%:722798>;88quf994599y35yur0330yeeyy9000p,2",
"y2582999822er9<396<667yassrreefsae967aay79syyu000X,,22792,77006988ti890yqq52221yu0ss092y9eyfy9930g39",
"u25929e98859y9:95;;62eaaasyr6akfy9a990ryyufyuy00rX*,229920r09r9etddt2qq9ttqwye2ps0u0re9r9ypffs39pg2r",
"p224288599t5996762721easfary9ffsryyr00rsfssru00ugX*:26922rssr5yutdd98qtqtyuffuypuy02yyyuuffyfu7ygg2p",
"u595;,266e9676997yreyaffue99uaaasy290rrfkfyyyy90y.%232yerrrrasay81tydyyyy8dhhywwudyyy99uwjjf54whgg20",
"i595,,;5559259277erayyfky9959uayy979yusfsaaauauyuX;295yyyyryffa988tyte8yytdddtyywyfduy9ywfxy5yyhpp7r",
"q>2855;8y;$599666rayryssyyruay9;e2yyssuraf9yfayeu+2999y59yy0yfflttd989eytidhiiiiueatfy9t5pp5yhq89g0g",
"4;24;229u<=967;767yfaafuayyafy9<96rupr90yauyasa9y+30yt956ss9yffxdak98tye2qddidqwtetufdyfyhpwfhht3prl",
"5;22;28ty29961<772raayfreyeffye9r7sfp33yffuyaau99O99ytttryu9uffkglxfyay9289yp9,wudfflkffsfyyhhhi0f0f",
"y;229889e9yat2ee0uuyyyr59affsauufsryupuggfafduy9w$42qyt8eurasfxlfuyffur982ffuwwwdzzzxxfyuffjzzhisg9u",
"y14598892eysy5er7yr7eyr90yaeakfar9yyppfffffdfu97y=8qqqiiya9e99uffuaydaayt8yuyyyweuzkxxf2qiihzMhhug0f",
"y29989yte9yyy767r9re99675;:fffay:9sr0pyfpu9tfsf59#2288ddsyreyeyuugxyyyfffkfff99;<efafdfqqyfh9yqyux0s",
"y;>889yyy53y92e79asy52:2229flffa9ryywffuwy9rufu25@2218ddye9t99eyufxggpffkkffu,w919yrllzidhdhyt8yyj09",
"y$*>99yyr32r9976*yaye593799sffkfrryffffuyw292yy37o1288ytttyaeyrr9sgxxgfffxuuu9uw9efsfxzuify9zh8q5g99",
"u$12929999y9792;=yusffuyuyyssryae9fxgjfywu0yeru0y $8tt8ddzffy9yyrsfgguyuuppwwjhw7yxllxg48hhhyhdtwf7f",
"w=22y53300r55e92;9yysffgyr0fsayyy5dffxfyyy9rrryryo18ddtdzzfu9500yusffyyuupfywppw5rlfxfffiyydddhtyf5g",
"y*39359wfppwwyy,,pu,wypp8eut8aak95yfizfqufpy5::0u*9qdidddhh841hifffkfyyuywyfpyuwwyhpyywghy9qfhyyuf2j",
"y29055,,,pp,wyj,,ppwyupw2ed11eafqqyffhhquffuu090y%9uihqiyiiq14ihdfkkfy9wpypfhiywywhfw05phqwhifyyyg9j",
"w59ww,,,ypp,,,jpp,ppppjp59a918adq9ihhxhyffpyppw0p=uftd9ttyyy82ddfkfffu99iyyfhpiqypppwwwghwihddy9wg9x",
"y,55,,9uwppwpppypupjjhpwtdfaa8yki9yyqphifu00pggrw$9yttdittyzhhq8fzky9yy9ifywyq8q9q9qpfffhpyhhz49ug9j",
"w,55w,9ww,wwyppfywpfjjiw9tyffqyihi555ihhhfyyspuuw+5y0uddtyuzhddtkzfyiyiqqityd8yq5w59ypfyhhwhjx09uj4f",
"q>>,,#,wp,wpyy,pfhyyppu9ffdpiuqwfp55qihff9q9gfppy#0wqy8<1dfaddfhfftkxiihqqtdhdhiihjhyufpqw9qxcxguf9p",
"y>,5>%wyhpyiwqi,wfffffu5yqypyiq8ffqqwffiyyyqfssy0#0yq9yetxhyfhddddydxqyfffifhhdqwfjj9ift9quhxxgjff9f",
"q,9,>>iw,piw,,i,5iffifiqw9qw9fqqpfywwfpwfipyfsufy$9rufdttzfizhffdfdfxyihihiihhdippjhypf299qfxxxjff9f",
"q>4,4>yiq99qwq>q553fpffjxhp9tq8>5wpuyyuyfgpgpuyufO9tyiuydkzxzakzlxkffyyffy5qyiiiffffpiyjzihxxzgpyj9f",
"q>455,qq5>5yii>qq95jhhfjvxf9ttqqqffhh95hxcppuw0yyOtyydiayyydfykdflzfjywfhhqqqyyffphyyhhjhhzfxxuwwp2f",
"q,,4,q>,,yyipqqwy94fhyfxfxffiyfhfhwyi99hfffauu5yy=aayy98t1=affkduflyywqyyhhhiih95wffiqyfjhfhfjfywhwf",
"5,,,q,>>,,yq,,qqw5,wfyyjfpyxiyiiyfwypyyjffffypuyy-uu9duydyeydfdtuffuwffiwhyfhih8,wpfiiyfxhhjxffyyxqf",
"954,w4>,q,wy9,www,3wwq5wfpihiyyywpqyiyhhfpuawfsry$usruxffkfreau90wuguhiwyu4yfihqqidyiitthxxhgfpywj0f",
"pww45qwyypw9,,,ww9w999qyifhhyyyq4yiuuhphffuufsyr0O9uyukfkff2yfff0wffhhiwuhhhfhfyhzitiihhhhjhpw0upvyf",
"hqwq499yy,,q9,,,wwwwwwppiyhy8iyq9yipfjhpffffuyyur-ry0yfzzfruffyfpffjhwwuphhuthhhhzhihdihffffywwupj0f",
"w9yy9>4qy>>,>5yqwpuqwpfpyqyffyyyiiyhjbjpsslfr77ys%0y99zkkyuxgf9yggpwwjhjjjhjhhihxxzdyqqqyyffww030jyp",
"q99849,qq182;>qqqyh>>9hidywiyqwwyiwhjjfpyyzkdyety*ysqtfffffxxxusfffuyfhhjjjjvjhhhhhqyqhhxfy05902,jw,",
"q4,2,q4,219815wyyyq51qihhhhqqyypihwfhypydtdfkfdysOyu22tiukfmxxxxfgxlffffwhfxjjjhqhhwhq9hxf090979pjwu",
"q>>&,4qqq2yyyyqyyyq9qhhtdihyyywwywhfffffddffayyay.2uyujffafxcMxxxcxffw,,ypjhhjjhhhhhy9,hfxjhuysupjpc",
",,,&>,5q8qtyq5yq4ywqttdqhhihyu90wwfffzfuihdffdauyO7apffffffxxxxxxbxxfywwifxfhphhhhhhq>>hzfxxgfsupj,p",
",,,949qwqq944999>qhqiyyqqdhhfiwyuyee9fddfzifxfayfo:7ulglhfphxxxffbMgj29yfjjhhjbvjpffhqqudyihxz95uj,j",
",>,99qq5q8>>2944>qqqiwiq4wyhhipyuy898afdfzfdgffyu+:2yukfhhqpxxffjbmjh3yxjjphupjjjjjjhyipfyyfkd9eug0j",
">59w949,qq2>5q89qyyqyyhq8qihftuwdayttiydfzddffayy*009yffhh9yhhffxxxjfwfxvjjp9hjbjjfjjjphkfffky5eugwj",
">,594,>>8ytqqqt99,49qqqq8qiihhfffddffitffkfkfffus$suff95wffifdzfjfffiffkjjphyjjbcjhhhhhwzzzffdauujwy",
",,,995,,2qqq9t95,94qwqyy,qqihhfiuduffyufzfaffauap*pfhyyqwhjpuppwfxfcxffkgfyy0xxcjjjxfzhfxxzzfyyywj,q",
"5,5,,qwqwpi29qy9>99ihhiq8,qqyiy5tuafuuu9ffufufaup%wyhffjhffjjjppfflxfsyyupp0yjgsgjjfuhxzfffzsyffgjwf",
"4,9,,,9,qywqq994>4qhihyqq5>3qiyqttfduuu2ydzhfpyyu*wpjf9yhjjhjhwpyufxfffruf32yjcgzzhfffxfffffa9sauj9j",
"5,,,59q95qwftq2188qyuiq5w9,qyqqyt5yyy903tfhhuyqup%wwjy*5ujjfpphpy9akxffyff39fgxxxxfffuufkfffyey59jwj",
"j,w,,q5qw95wqq5,25554wq593wwyy0r82799r0ydfyiyq0w9$wphfpw9uhjjjpyssffzffffuyeafffffayetysdfffdffywpuj",
"p,,,,,,,935qqw5>>55545q9059yy79062099rysufypy999w#9wpfupuuujpjjjffaffayyfuyyuzfysfkaea09yfppfffsupwb",
"0#,,,,,,,,,,,,*>;555>;;,52,2;%:35227333399224525wO%%%%%>,,,,,>,,222>;12;2122422222:2;23229qw5222,3,w",
"w$,,,,,,3,3q,3>,2,9,%$,505,:=:299599739yuw235599u%:,>>>*>59w9,,99y95249988yyt99tyr29273yyiyffu525w9w",
"y,,0,,555,q959>,,>5;#;9399,,:30090yr225ppywww999w*:335535w0wuywyyy997etdetfhf9yfkk9yppqhhhhxvjpqyj9f",
"0%,55q,,9,>8q,4q9q9,,ww3>,399sufsy9y95q9ppwwyyw9u$,3339wuyuyywqiy229er9dyi9qpfkxkfyufpyvmzvMjvjhpp3x",
"u%,95,>>544qyyqw9w0599w93395yyusfuyuu9wwpuwuyyw5u:35,500www09qifay9yyfyyfd29ufzxfyfppuqjvhhxjjhvjp9x",
"p$,04>,>4hiiyyq45wwypuwwyww9yy0ygfffaufwwygp50y5u:3330w553yw25pffafyykzfiiyffxxxfypfuuiihdyyxxjhgw3j",
"p#;33,444wiywyq4:0wyy0uyw5ytuy5yglggfwf59pjfuw9yg:33,0r939yfuufiuyfffxxffffjxvxzkdifhhhhhiihhhjfuu3j",
"u,,,598>>qyyyiy,;90009uywquufyyusfgfhwyfffjpyt5pg:77:90y59yfiiiyafflzmxffdhxxhxffditzzxhhfhzhihhuf5g",
"p9wwy8,,&2q5qii90w0092;:yyuyfwwy09yyf5,uppfp422ig:,702ryw09ffffifxmMzmnnhqihv92fdhzzvvvzvmMvhffhfp5g",
"p9w59,qq44qqyuiquwu:90:2wyw9y5yyyy0yfyquwuw9999wg%:,7,009y9ufffdyfnxznxxhhdhhyqd9qxzvvMyymmMhhpfff0g",
"j4w55qy5>qphyyi4;yyy09uywypw5qqwu059u2qdiq>>qww5p559,>9wwyuuffy9w92xxfydffgxffnxzxxcxcxfimMNvvvhpgwg",
"j5uq4,w9,9iiyhq9909wy9uswyyw55qufy99u24dii55wfiqj,w9**quwyuggfywfytxfuytdufxfaxMMmxxcxjjhMMvjvjjggyj",
"j,w59,qw9,wiyiqyu925yyyyyuywy59wuuyyiyqdhiiyyhfij5w959wwwpufjfupiyyfyyu59ufgffxMxzxbpcxjhNMxmbjjggwj",
"h*,5ww5,55iw99,4yy3wwyy0ypiw4,8wfyuqyiffyqiiiyu9f,599wwpppfuufgffiipyuffffxxxxxfffhzwjbMMvxhhjvjjg5g",
"j>,5w9q5,wyw455qy03yyrr9yyu9,,5yhywqyyffq9uhhqw9w,99w9wpuugffffxfdfhhyuhxxxfhxuyifhfwfbxbxvjwfxxcj0j",
"f295,455,99,55why000rs92yyu0q>,qqwiyiywfhiiiiyyuf3wu53pjyfjjffjxfdftfxzvxuiyfxfdjxjhxxxjxvxpjgcbjjuj",
"f>525>,,,q,9w9uiyu00ufy7suy0y85q44yyyyyyihhwiwywh,wy33ppyfgppujxffd8yxzxhiw5uzfxxmvjjfpfxxjfpgxxcj9j",
"f&;,q,ww999yywupusy0yfgu0yf0wqyw55wyhyhyyiuqyqwqy,yyw0wuufguupfjfdd9dffxjjy9ykzxxxvxhiifxxcxyyjjjj5g",
"f229yt953yuy75y5698ysfllfyarsupftt9uyu9yfpyfwqqqw5yyypuhfpppy,yyhhjjhhhfhhjhxNMpxvvvwhjMCCNbhqhhgg,g",
"g295ye9999yw5591286afflxfayylfuyyyyuwypfhpupwwiwh,wiypuhphhpy,qphhjjjjjhppvjxbvhvvvjhhvNCNNNji4yggpg",
"g,5,99y9wwwuuy59yr6dfkxxsssuxfuuyyu030upfyuu9ihyf,wiwwpphipwwqphhhjjjjjjihhhhvvMvvhphjxNNMvbhh9qgu,g",
"j,3,:25ryw998yeuarafsffy07fflfpf26yyyuppppwwq9wwh,qywuy9,y,ypyp5yhhpvxhvixxvxvvMvvvhhjvhjNjjhhhhcc,c",
"x29263r9r09yt99yysfufkfuy9rsfuuu69fuuupuwqppwwpuh,qwwy,,,pwyyyp,ypyhvvjjfjphvhhvvvvhphjjjMBjjhhjcg,j",
"g7956<ar<60futeeafffkflfpffff<e99yysuyyfi9yfywwwi,,9hp,ypiiyqypqjhiihxjvhpphyvNhvNjhhhhhjbbjhijjcp,c",
"u26277a96eyte996yfxlllkffflff5y09sfy9uughpphfq9uj,,wpywhfppppphhvhihhhjjhvbvhbMhjphjjjjxbNMMhhMbbp,g",
"f2539yr7edt89ey2yfkllsyasfxkauafygsy3ypgpyyffuqfh>,,yqwhhhhphxphhyhjjhhhjBBNbvxvhqxxMvvNNjjjhjMbcj,u",
"j7yy7rrrsfsraayffupppywullffgsgfuufgfggghfxju00pj,wwpppiyiphphqqihihdvhfvMvvvhvhxbxjhxzmNhyhhvvhgu,g",
"x5y90r9rsffe9u5yyytfpy9usfyxlfs0ppgggcggffjj535uj,,wyphiqwhjhpqwhhwytvvzmmzhhhhvbbxxhxzxvuyjxxjfpu,g",
"x95ryuryufs0ytyiufy995wq5ugxly79puuffgppyyjhpw00j,pqwwqihyijvvhhztthihihvvvvhhvdfxmxzzfnjhjMfiyfup,j",
"g79erguy9uu0yy8iffy5599qrugxxsyruupffguufwyyp9:2hqwqwywhhyihvvvjzhihhdqivvzzihhhxxMvmmxmbbbNmhiiub,j",
"f:5ruguy9uwuww>qfhfypwwwyyfagfyryfffffuuw3,5u023f,wq9pippyphvvvvMvzvhyqihzhiqhvvMMBMmxxnmMMNmmzzug,g",
"s20y97yyyy0uy9>yffhhjfjfffsayssruffgkayuwywquryuj,wyqiihpppxxxvxhhzvhhdyzvhdhdhMMNMBxfzMMVVVMMxxjg,p",
"f3uuryyyuw9ufw5wwfivxjfyuffffss9sffkxyyy25pwpussj9qwqyhhiwipphhhhihzhhhhivhzvhimNNMMzyyxmVNVNMxxjp,p",
"g25550uuuwypypwwpwqfhhyyfu9ysfr977sxkeyjhfy5300sj,,,hyiq,hiphphhvhhzhvvMMMvdiq>vnlMczfzxxndffxmccjwg",
"c0ww,,wwuwuuwgwypuwhxj99dt18dhyqwwhjjfijjffp000uh>>qiiwyqhpyyihjMvMbvvxvvhhqdzuxlkMMnzxmmzvzyzzzgp,p",
"g,0,:,ugg0wuygy3qfphhjpwhit2qhfqwuhhjffhjipfy0y0h>q19qwpphfhhh8hMNNxvvvMvhhhzhfxNMnMzzzmmdnMzhxvpj,p",
"j,,0,uwuwwupgyu0pfjhhfqiiidqwjxhq5qpjhjwyyffsgu0q4qy9yhhfjhwyhyjjvvhhjxvvhhMNzuxMNMMzddvmmzzVMzxjp,j",
"c,500u000wwuuuyupphjxfypifhyyfhf5>9pjjjffpffufu0h8yhhihhfffqyyyxxvvhjjzxvjhfvMfxMMMMvvvddmmnMMzxbj,j",
"c,0:,wguwuu000ggffhjfuyhhphhhyhhw9uifffwpwfjfgp3i9ihqhqyfw9uhxhjvmMjfhhfjvvvkfzxMMxkdxMhdznnnzmnjp,j",
"c,,:0yugguw0uu0ghffjjyyyyhyhhyihpwuufpfyppfjpgf;94qy9qqwuuwwhjhhvvMjfhxhjmvxnzfmMnzfdvMhdnnnnhvnbpwj",
"B,u,yuwggu00rr0gjjjjjhfyyyqyhyihjfppfuuupffgpjj9yw9yy9wwufuwihhhxxhhhfhhhhhjnzdnlkafzvvxhvxnzfzvbp,p",
"g,uw0g055w0033005fgpfjbvhyqyq,4wjfffwfpjfjjfppguhqqqyhyypbbvhqhMzhhififhhhhiadyxayflMvzzzmVVddzzjjuu",
"g:,,guu,3uur30ug0ggggccchpwiwqyhjjgw9jjxgggg0uuuh4wyyywyhxvjxfhvhhzzvhiddfdtzzdzdizzMMnnhMMCzzzvjp,p",
"c,u,,:,u0gu00ruu0sgsggcgihhpyhhhfpfwwpjfppupyppwj,9qy,yhjphhjjhhyhzhhhzhdxxzzkdMMndhzzdzdvNVVVzzjp,j",
"g:u0,:u,0uu3000030puuuguwhhyhi9iuuguujjfpgpgppuyj,wypyhjjpjjjjfhqyzdfhvvzxmvxfdnmxdzztadhMMVMMzhjju,",
"g:,0,,uu0gr39000570r03gpihp99y9quuuupjjgfppfgpsyj9uphyhjjfjjhjhfdhvhhhfjfdzfzzxzvxdzdtddymMMNMzfgj,p",
"c,,,uu,ur0030,ruur000yyupywwq5,quyuuffffpffhuuy9f25ywwwhpjjpjjjjjfjfybbjiwiidzxfzzdhxnxfxxxxxxyfbp,p",
"g,gu0ug,33300,000ss0wu0wpw9wyq9w00uggpfffjfpuuu9f,5ywy54,upjjpfjjjjfyjjgyyyfdhzdfzddffkzxxmbzdyupp,j",
"g:g,,,u::3:30000y93rpu0900i9qqww30pfpupppfyq39ruu25yq5q4,9ypjppjhwwwuppfhhqyzy9dfffdsfffflgfhfffjp,,",
"g:,,,u,,:3,:333:3::25,55,5w,954,00055,,ww952:3900%5q5554y,,w9wuppww599wpfi529yqyytffuufyfywyuyppj,,,",
",::,00u:000:00033:333373370rr07399722;=re65929yt9=9955,5w5599,w,wwu,,,ypyq,>>,ipq,fpyppyy,,p,ppp,,>,",
"c,,u:uuuu00uuuu0003sssrrrrrrrruf7790yyasfay6=:yau20w95095wwup,ww5wy,9wyip,q9qipipffywyfjpppjfpppf,>,",
"cuu,:u0uu:0uuuu3333rrr33rr9rrssgyrrusufffu65;<9ey2qt090w990ww9w,,w99www,w9ywixjhhppqyppjjjjpppj,,p#,",
"g:,g000uuuuur03330r000srsrsrr9glxxyuaafeyryd99tfx;995250wugjjppyhpwiihhiqwyhphxvhhjjffpjpjjjjjjpj,,,"
};
