/* XPM */
static char *_db1ddfce17d4cdeb14bb7bc3d896869o3NQRR7Nlr9XSdvF[] = {
/* columns rows colors chars-per-pixel */
"50 50 157 2 ",
"   c #6F6F6E",
".  c #757574",
"X  c #787776",
"o  c #797877",
"O  c #7D7D7C",
"+  c #807F7E",
"@  c #7F807F",
"#  c #81807F",
"$  c #858483",
"%  c #888786",
"&  c #878886",
"*  c #898987",
"=  c #888789",
"-  c #878888",
";  c #8C8C8B",
":  c #908F8E",
">  c #8F908F",
",  c #8F908E",
"<  c #90908D",
"1  c #90908E",
"2  c #90908F",
"3  c #91908F",
"4  c #90918F",
"5  c #91918F",
"6  c #92908F",
"7  c #93918F",
"8  c #91928E",
"9  c #91928F",
"0  c #91908F",
"q  c #8E8F90",
"w  c #8F8F90",
"e  c #8F8F90",
"r  c #918F90",
"t  c #8F9090",
"y  c #8E9091",
"u  c #8F9090",
"i  c #909090",
"p  c #919090",
"a  c #919190",
"s  c #909091",
"d  c #919091",
"f  c gray57",
"g  c #929090",
"h  c #929190",
"j  c #939190",
"k  c #929191",
"l  c #909290",
"z  c #919291",
"x  c #919391",
"c  c #929290",
"v  c #939290",
"b  c #939390",
"n  c #939291",
"m  c #939391",
"M  c #929192",
"N  c #919392",
"B  c #929292",
"V  c #939292",
"C  c #929392",
"Z  c #939392",
"A  c #939393",
"S  c #949291",
"D  c #949391",
"F  c #949292",
"G  c #949392",
"H  c #949393",
"J  c #929492",
"K  c #939492",
"L  c #929493",
"P  c #939493",
"I  c #949491",
"U  c #949493",
"Y  c #959493",
"T  c #949593",
"R  c #959593",
"E  c #969593",
"W  c #969693",
"Q  c #939394",
"!  c #949394",
"~  c #939594",
"^  c gray58",
"/  c #959494",
"(  c #959594",
")  c #949495",
"_  c #949595",
"`  c #959595",
"'  c #969594",
"]  c #969595",
"[  c #949694",
"{  c #959694",
"}  c #959794",
"|  c #949695",
" . c #959695",
".. c #959795",
"X. c #969694",
"o. c #969695",
"O. c #979695",
"+. c #969795",
"@. c #979795",
"#. c #969596",
"$. c #959696",
"%. c #959796",
"&. c gray59",
"*. c #979696",
"=. c #969796",
"-. c #979796",
";. c #969797",
":. c #979797",
">. c #949493",
",. c #989797",
"<. c #989796",
"1. c #969895",
"2. c #969896",
"3. c #979997",
"4. c #979896",
"5. c #989896",
"6. c #999896",
"7. c #989897",
"8. c #999897",
"9. c #999897",
"0. c #989798",
"q. c #989798",
"w. c #979998",
"e. c #989898",
"r. c #999898",
"t. c #989998",
"y. c #999998",
"u. c #999899",
"i. c #999A98",
"p. c #999A99",
"a. c #9A9A98",
"s. c #9A9A99",
"d. c #9B9A99",
"f. c #9B9B99",
"g. c #999A9A",
"h. c #9A9B9A",
"j. c #9C9B99",
"k. c #9C9B9B",
"l. c #9B9D9A",
"z. c #9B9C9B",
"x. c #9C9C9B",
"c. c #9C9D9B",
"v. c #9D9D9B",
"b. c #9B9C9C",
"n. c gray61",
"m. c #9C9D9C",
"M. c #9D9D9C",
"N. c #9D9E9D",
"B. c #9E9E9D",
"V. c #9E9F9E",
"C. c #9B9B9A",
"Z. c #A09E9D",
"A. c #9FA09F",
"S. c #A0A19F",
"D. c #A1A1A0",
"F. c #A2A1A0",
"G. c #A1A1A1",
/* pixels */
"O & r = = % ; j = ; < ; ; ; < W W / j , j N , W : # @ $ & $ - & - = - = / j ; ; j ; ; Q / y / j ; # ",
"O $ ; = * : ; j = ; < j Q ; , , j N , 1./ / < N ; $ $ = ; * ; = - $ - j w.w., ) u.j q y / 5./ W < # ",
"+ ; ; ; = / ; S Q j W / j < ; , 1.N l.A.l.l.1.j < * $ $ & = * = = j j / u.j ; / w.; ; j u.u./ / < $ ",
"+ ; ; % j : % $ j j j < N ; ; N ) 1.[ ) m.W y N ; # = & ; $ & ; = ; ;./ w.N ) j $ = / w.j u.N u.S $ ",
"O * % S = $ = 5.k./ y & ; N W 1.N u 1.N A.S.l.< - o $ = ; = y & = j ) / ; / m.1./ ) / j / N.w./ r $ ",
"+ ; 7 <.S : ; / 5.u.<.j < < 8 N > [ } } N.G.u.1., $ = ; ; ; / - ; ; ; ) ; ; / l./ ; W 5.c.u./ w.; $ ",
"X $ ; < S W 5.W ) 0.u.; j W j ; u [ N } W ) u., ; O $ , N = y = - Q j * - = u.N.;.r / 5.u.S ; j ; O ",
"o % % = = 7 : ; j ; q ; : < * & > , > 1.j , u.c., . * ; < < ; , @ ; 1.u.) j w./ ;.< N.N./ W < r : + ",
"o $ $ : j j ; = j ; ; ; ; ; & ; ; N 1.1.< ; / 1., @ * * 8 W ; < ; < : 5.W ; y j 1.; 1.N./ u.W ; ; * ",
"+ $ $ : j S ; $ ; ! q Q ) j N W < , < * ; 1./ / < $ ; $ < W < 7 N : u.5.j W y = l.; l.c.l.u.< <.S % ",
"+ $ % : = : = O * y : ! / ; W j < = , N N j 1., * $ & # : ; j < 1.5.l.u.j / u.j 1./ $ / N.u.N 5.E $ ",
"O $ $ S < ; ; % * $ j S , W ; : , $ < / u.N N j ; O $ @ < W N ; 8 u.u.5.y / 1./ j 5.< 1.1.1.j k.<.$ ",
". + - ) / ; ; W ; = ; < 8 < < < N ; / ) 5.W j y ; # $ & < ; < $ ; ; u.c.A.m.y ; $ j ;./ W l.k.5.<.% ",
"O = q ) j ; ; W ; & ; , 8 , ; ; W j y / 1.l.1.j ; @ & $ & ; W ; < < u.c.G.N.l.1.1.l.1.j 5.N.5.S j % ",
"O ; ; ) N y ; O # * , ; < ; N q y ; @ ; 1.N 1.> ; & ; & * ; , * < * ; ; ) l.A., j W / 1.G.l./ / j $ ",
"o ; y ; y j < $ * ; * * W ; j j y [ y @ > ; , b b , ; ; < ; * * ; N j j 1.1.1.N , N u.N.N.u.m.) ! $ ",
"O $ = $ $ * < < $ ; , W S : W $ u ) ; > , N < j , * ; $ ; $ $ * < 1.; W w./ W N j 1.l.Z.w./ N./ j * ",
"@ $ @ @ O ; S * # ; ; , ; $ ; % - y > [ N 1.1.; ; @ # $ ; * J > < N , 1.w.l.W 1.) 1.g.l.w.w.g.u./ $ ",
"O = = $ * ; * * # 8 j = % # $ ; ; , > w.A.3.1.> # # # ; > > > * & , N 1.y u.l./ j ) / g.1.l.u.N./ = ",
"+ $ = ; $ = * * @ ; j $ * # + $ j N , N 3.u 3., @ # , ; * > $ , ; , N / , N c.1./ / Q ) ) A.u.m.<.= ",
"# % : * # # o * # , 8 ; * # * % * ; $ ; , , , & # # ; # & x > x = & , N < ; 5.A.1.1.u.1.u.N.m.u.5.; ",
"# * ; $ # # # * $ o # ; % + ; ; $ $ * * ; # , , & # # ; ; J , , $ ; 1.1.j & ; / , ) u.5.j u.l.5./ = ",
"+ % % o # # # # # o o $ $ + * ; O $ ; & # # , ; ; # # , ; , > ; & * ; < ; ; ; N j = , < , w.u./ 7 % ",
"o # # $ @ O @ . # # # # # # * ; * # & $ & $ $ & * @ # # # & & & # & * $ ; & , $ ; = ; = < W , , ; $ ",
"o o O $ $ $ $ o - = $ $ * # ; < ; ; j ; ; = ; = $ o $ # # * * # # $ # @ * * # $ : ; ; % j j = ; * ; ",
"+ O o $ $ = $ ; = - $ - ; ; N , / j y ; % r ; ; * o ; $ * ; 8 ; ; ; * , * $ * j u./ S ; , W W j ; : ",
"o + $ * ; j $ S ; ; < , < 1./ j , , 1.y / u./ Q ; . ; # $ } 1.b * < W W < < : W u.N.k./ W W 5.< ; S ",
"+ + $ * = $ ; ; $ $ y j j W 1.W y / w.[ / / m.j ; # , $ @ $ 8 } * = ; = : W 5.<.<./ 5.y W l.1.; < <.",
"o $ $ $ $ ; = $ % < u.1.> ; j / u.5.5.N ) ) A.w.< * ; ; & ; 8 1., j ; , ; S ; ; / j j / W N * ; ; S ",
"% ; % = = j ; ; * < / u.3.) 1./ 5.N N l.w.1.m.m.5.# * * & ; 1.N ; j ; j W <.< ; W W N y / 1., / W <.",
"# ; + $ ; ; j j < N j / i.W 1.u.g.) 1.m.1.) u./ W o ; * * * < ; j ; ; S : / ; & j 1.1.1.m.N l.1.j / ",
"+ = $ - & $ $ j ; = , ; , N / / y ; y 1.) 1.j ; < $ & $ * * $ ; / j j / ; ! < * ; j W W w.1.u./ N j ",
"$ * $ $ $ = ; ; ; * ; > & ; N j $ ) y w.m.1., ; < o = = ; < j j / Q ; N.k./ / S j = / 5.W u.W N ; ; ",
"+ + $ % $ ; ; ) ; $ = y , ) w.) l.m.m.w.1.j ; j S # ; , ; < N < ; ; / N.Z.<.w.N.1.N W < / / 1.8 W N ",
"o + % % * ; $ y = @ = j j / w.q m.m.u.j S / ; < W @ $ = < < N j / / u.N.5.S k.N.W ; / / <.W W < W W ",
"+ % ; = & / ; ; ; = ; $ q ;.j w.u./ 1.; / l.u.< j $ = ; ; = ) ; / N.N.N.u.k.g.; * / 5./ u.N l./ / < ",
"# $ $ @ = / w., y 1.j ; j / j w.w.) ;.q N./ u.W N $ ; Q q ;.y y / m.N./ u.G.N./ / u.S W S.c.u.5./ / ",
"$ $ - ; y u./ ; N 1.j ; , j ;.j j j u.5.u.c.u.c.<.& q j ! g.j j j ) / j j 1.S.u.< 5.c.Z.c.u.S.< S 5.",
"# $ $ j N m.y ; j - $ = w.j ) ; 1.1.l.j & < l./ W $ j ;.S / j < / l.; ; , 1.S.u.! 5.c.k.W W N N * <.",
"+ $ & N / u y ) ) - = , y ; m./ l.u.l.N.u.; / , ; $ j j / W N = N N.S.c.u.u.u.u.< k.N.u.W < < O./ u.",
"@ & ; ; , & = N ) j ; ; 8 5.c.5.N.N l.N./ ) N N 7 % : : O.7 6.r W W c.A.N ) W u.; r Z.u.u./ < ; / / ",
"O $ ; ; $ $ $ , w., & < 8 N j , w./ j l.u.G.1.) 6.% # : <.7 O.O.j k.c.l.1.w.- l.; / c.N.c./ u./ j j ",
"@ o $ , y ; y y y j ; N 3.) j > q 1.W u.w.G.G.u.6.# % 7 : S O.O.1.N.G.u.l.l.1.1.u.* 1.S.u.<.c.c.j 1.",
"& $ $ & N u.; u y j $ y l.u ) y j < N.G.m.l.m.) 6.% $ E 6.O.r j u.N.A.1.w.1.l.w.N.W 5.u.5.5.c.c.; W ",
"& ; $ , u ) ; ; $ j = W m.%.w.w./ Q u.u.<.7 6.S O.$ : 7 : S : : W k.N.G.Z.W N ; 5.c.k.5.c.c.c.k.u.5.",
"= ; - N w.y - y = ; , = ; w.g.y 5.c.j y O.E 7 < O.$ ; ; : Z.7 7 W <.Z.F.S.c.1.u.Z.c.W / S.c.6.W / u.",
"$ & , , ) - ; y ; ; ; O ; / j ; 5.5.: S O.O.7 < E # ; ; 7 S ; : ; : S / u.k.N < 1.5.6.Z.c.c.c.6.W / ",
"o O $ y j y ; $ $ $ = ; ; ; y N / u.S * 7 O.S < 7 # * 7 ; ; ; * S Q j S S W < < : W 6.k.k.c.5.O.j / ",
". o @ $ # & , # $ # # * * $ ; # * * ; * * , < * < $ $ : $ $ % * ; = ; ; ; ; : ; ; ; j : j j ; - j ; ",
"  $ & ; # ; < $ * * * , , ; * * @ ; # * < 8 , $ 7 $ ; E : : E 6.: ; j S ; ; j j j = ; y j ) ; $ / q "
};
